<svg width="45" height="45" viewBox="0 0 45 45" fill="none" xmlns="http://www.w3.org/2000/svg">
<path d="M22.5 0C10.08 0 0 10.08 0 22.5C0 34.92 10.08 45 22.5 45C34.92 45 45 34.92 45 22.5C45 10.08 34.92 0 22.5 0ZM24.75 38.25H20.25V33.75H24.75V38.25ZM29.4075 20.8125L27.3825 22.8825C25.7625 24.525 24.75 25.875 24.75 29.25H20.25V28.125C20.25 25.65 21.2625 23.4 22.8825 21.7575L25.6725 18.9225C26.505 18.1125 27 16.9875 27 15.75C27 13.275 24.975 11.25 22.5 11.25C20.025 11.25 18 13.275 18 15.75H13.5C13.5 10.7775 17.5275 6.75 22.5 6.75C27.4725 6.75 31.5 10.7775 31.5 15.75C31.5 17.73 30.69 19.53 29.4075 20.8125Z" fill="#035B96"/>
</svg>
