<svg width="100" height="101" viewBox="0 0 100 101" fill="none" xmlns="http://www.w3.org/2000/svg">
<path d="M50 0.893555C22.4 0.893555 0 23.2936 0 50.8936C0 78.4936 22.4 100.894 50 100.894C77.6 100.894 100 78.4936 100 50.8936C100 23.2936 77.6 0.893555 50 0.893555ZM50 15.8936C58.3 15.8936 65 22.5936 65 30.8936C65 39.1936 58.3 45.8936 50 45.8936C41.7 45.8936 35 39.1936 35 30.8936C35 22.5936 41.7 15.8936 50 15.8936ZM50 86.8936C37.5 86.8936 26.45 80.4936 20 70.7935C20.15 60.8436 40 55.3936 50 55.3936C59.95 55.3936 79.85 60.8436 80 70.7935C73.55 80.4936 62.5 86.8936 50 86.8936Z" fill="#035B96"/>
</svg>
