<svg width="25" height="26" viewBox="0 0 25 26" fill="none" xmlns="http://www.w3.org/2000/svg">
<path d="M17.8678 16.2921H16.7386L16.3384 15.8942C17.7392 14.2143 18.5825 12.0334 18.5825 9.66089C18.5825 4.37068 14.423 0.0825195 9.29151 0.0825195C4.16001 0.0825195 0.000488281 4.37068 0.000488281 9.66089C0.000488281 14.9511 4.16001 19.2393 9.29151 19.2393C11.5928 19.2393 13.7083 18.3698 15.3378 16.9257L15.7238 17.3383V18.5025L22.8707 25.8557L25.0005 23.6601L17.8678 16.2921ZM9.29151 16.2921C5.73234 16.2921 2.85926 13.3301 2.85926 9.66089C2.85926 5.99164 5.73234 3.02971 9.29151 3.02971C12.8507 3.02971 15.7238 5.99164 15.7238 9.66089C15.7238 13.3301 12.8507 16.2921 9.29151 16.2921Z" fill="#035B96"/>
</svg>
