<svg width="45" height="45" viewBox="0 0 45 45" fill="none" xmlns="http://www.w3.org/2000/svg">
<path d="M39.7129 24.6937C39.7997 23.9906 39.8576 23.2594 39.8576 22.5C39.8576 21.7406 39.7997 21.0094 39.684 20.3063L44.573 16.5938C45.007 16.2563 45.1227 15.6375 44.8623 15.1594L40.2336 7.36875C39.9443 6.8625 39.3368 6.69375 38.8161 6.8625L33.0592 9.1125C31.8441 8.2125 30.5713 7.48125 29.1537 6.91875L28.2859 0.95625C28.1991 0.39375 27.7073 0 27.1287 0H17.8713C17.2927 0 16.8299 0.39375 16.7431 0.95625L15.8752 6.91875C14.4577 7.48125 13.1559 8.24062 11.9698 9.1125L6.21283 6.8625C5.69211 6.66563 5.08459 6.8625 4.7953 7.36875L0.166619 15.1594C-0.122673 15.6656 -0.00695607 16.2563 0.455912 16.5938L5.34496 20.3063C5.22924 21.0094 5.14245 21.7687 5.14245 22.5C5.14245 23.2313 5.20031 23.9906 5.31603 24.6937L0.426982 28.4063C-0.00695676 28.7438 -0.122673 29.3625 0.13769 29.8406L4.76637 37.6312C5.05566 38.1375 5.66318 38.3063 6.1839 38.1375L11.9408 35.8875C13.1559 36.7875 14.4287 37.5187 15.8463 38.0812L16.7142 44.0438C16.8299 44.6063 17.2927 45 17.8713 45H27.1287C27.7073 45 28.1991 44.6063 28.2569 44.0438L29.1248 38.0812C30.5423 37.5187 31.8441 36.7594 33.0303 35.8875L38.7872 38.1375C39.3079 38.3344 39.9154 38.1375 40.2047 37.6312L44.8334 29.8406C45.1227 29.3344 45.007 28.7438 44.5441 28.4063L39.7129 24.6937ZM22.5 30.9375C17.7267 30.9375 13.8212 27.1406 13.8212 22.5C13.8212 17.8594 17.7267 14.0625 22.5 14.0625C27.2733 14.0625 31.1788 17.8594 31.1788 22.5C31.1788 27.1406 27.2733 30.9375 22.5 30.9375Z" fill="#035B96"/>
</svg>
